<svg width="283" height="113" viewBox="0 0 283 113" fill="none" xmlns="http://www.w3.org/2000/svg">
<path d="M74 28.22C74 12.8 61.59 0.289997 46.22 0.0999966V0.0899963H6.15C2.81 0.0899963 0.0999985 2.8 0.0999985 6.14V100.45C0.0999985 103.79 2.81 106.5 6.15 106.5H51.76V55.73C64.47 53.02 74 41.74 74 28.22Z" fill="white"/>
<path d="M51.76 106.52C67.2792 106.52 79.86 93.9392 79.86 78.42C79.86 62.9008 67.2792 50.32 51.76 50.32C36.2408 50.32 23.66 62.9008 23.66 78.42C23.66 93.9392 36.2408 106.52 51.76 106.52Z" fill="#FFCC00"/>
<path d="M118.95 61.51C119.53 61.19 120.02 60.79 120.42 60.28C121.07 59.45 121.4 58.34 121.4 56.93V56.5C121.4 54.51 120.76 52.99 119.48 51.92C118.2 50.85 116.29 50.32 113.77 50.32H109.7H109.08H106V73.26H109.07H109.69H114.69C116.39 73.26 117.8 73.02 118.93 72.53C120.06 72.04 120.91 71.33 121.48 70.39C122.05 69.45 122.33 68.32 122.33 66.99V66.56C122.33 65.13 122 64 121.34 63.18C120.74 62.42 119.93 61.87 118.95 61.51ZM114.23 53.42C115.41 53.42 116.27 53.74 116.82 54.37C117.37 55 117.64 55.82 117.64 56.84C117.64 57.83 117.37 58.65 116.82 59.28C116.27 59.91 115.41 60.23 114.23 60.23H109.7V53.43H114.23V53.42ZM117.66 69.22C117.05 69.84 116.19 70.15 115.07 70.15H109.7V63.2H115.07C116.21 63.2 117.08 63.51 117.68 64.12C118.28 64.73 118.58 65.58 118.58 66.68C118.57 67.75 118.27 68.6 117.66 69.22Z" fill="white"/>
<path d="M137.51 66.33C137.51 67.57 137.15 68.55 136.44 69.26C135.73 69.97 134.81 70.33 133.69 70.33C132.59 70.33 131.72 69.99 131.08 69.32C130.44 68.65 130.12 67.73 130.12 66.57V56.4H126.49V66.08C126.49 68.56 127.02 70.44 128.07 71.71C129.13 72.98 130.64 73.62 132.6 73.62H132.76C134.06 73.62 135.14 73.33 136 72.75C136.86 72.17 137.51 71.32 137.96 70.19C138.07 69.9 138.17 69.6 138.26 69.28V73.13H141.15V56.4H137.52V66.33H137.51Z" fill="white"/>
<path d="M150.17 64.25C150.17 62.7 150.59 61.5 151.43 60.66C152.27 59.82 153.47 59.4 155.05 59.4H156.17V56.2H155.58C153.51 56.2 151.95 56.79 150.89 57.98C150.13 58.84 149.64 60.03 149.43 61.52V56.4H146.54V73.13H150.17V64.25Z" fill="white"/>
<path d="M175.16 56.4H172.27V59.7C172.22 59.58 172.17 59.46 172.12 59.35C171.52 58.21 170.7 57.35 169.65 56.76C168.61 56.17 167.4 55.88 166.03 55.88C164.85 55.88 163.77 56.09 162.79 56.5C161.81 56.91 160.96 57.5 160.26 58.25C159.56 59.01 159.01 59.89 158.63 60.9C158.25 61.91 158.06 63.01 158.06 64.19V64.78C158.06 65.94 158.25 67.03 158.62 68.05C158.99 69.07 159.52 69.98 160.2 70.77C160.88 71.56 161.7 72.17 162.65 72.6C163.6 73.03 164.66 73.25 165.82 73.25C167.1 73.25 168.25 72.97 169.25 72.41C170.25 71.85 171.06 71.02 171.67 69.93C171.69 69.9 171.7 69.86 171.72 69.83V71.33C171.72 72.57 171.52 73.58 171.11 74.36C170.71 75.14 170.06 75.71 169.19 76.08C168.31 76.45 167.15 76.64 165.7 76.64C164.98 76.64 164.19 76.6 163.36 76.53C162.52 76.46 161.73 76.37 160.99 76.27V79.34C161.69 79.44 162.45 79.53 163.26 79.59C164.07 79.65 164.86 79.68 165.65 79.68C167.9 79.68 169.73 79.39 171.13 78.81C172.53 78.23 173.55 77.31 174.2 76.06C174.85 74.81 175.18 73.17 175.18 71.14V56.4H175.16ZM171.68 64.97C171.68 66.03 171.46 66.93 171.01 67.69C170.56 68.45 169.96 69.02 169.21 69.43C168.45 69.83 167.62 70.04 166.71 70.04C165.74 70.04 164.87 69.82 164.12 69.37C163.36 68.93 162.77 68.28 162.34 67.45C161.91 66.61 161.69 65.62 161.69 64.49C161.69 63.37 161.9 62.4 162.33 61.56C162.75 60.72 163.35 60.07 164.11 59.6C164.88 59.13 165.76 58.9 166.75 58.9C167.62 58.9 168.43 59.09 169.17 59.46C169.91 59.83 170.52 60.38 170.99 61.09C171.46 61.8 171.69 62.68 171.69 63.71V64.97H171.68Z" fill="white"/>
<path d="M190.46 69.86C189.72 70.37 188.76 70.62 187.6 70.62C186.44 70.62 185.49 70.37 184.74 69.86C183.99 69.35 183.45 68.66 183.09 67.78C182.82 67.12 182.66 66.39 182.6 65.59H195.51V64.13C195.51 62.68 195.21 61.33 194.61 60.08C194.01 58.83 193.11 57.81 191.91 57.02C190.71 56.23 189.21 55.84 187.41 55.84C186.02 55.84 184.81 56.08 183.76 56.57C182.71 57.06 181.85 57.71 181.17 58.53C180.49 59.35 179.97 60.27 179.63 61.29C179.29 62.31 179.12 63.37 179.12 64.47V65.06C179.12 66.14 179.29 67.19 179.63 68.21C179.97 69.23 180.48 70.16 181.17 70.97C181.85 71.79 182.73 72.44 183.81 72.94C184.89 73.44 186.15 73.69 187.6 73.69C188.95 73.69 190.15 73.46 191.2 73.01C192.26 72.55 193.13 71.9 193.82 71.05C194.51 70.2 194.97 69.21 195.2 68.07H191.82C191.66 68.75 191.2 69.35 190.46 69.86ZM184.72 59.66C185.45 59.16 186.35 58.92 187.42 58.92C188.45 58.92 189.31 59.14 190 59.59C190.68 60.04 191.2 60.67 191.55 61.48C191.76 61.98 191.9 62.53 191.99 63.14H182.71C182.8 62.63 182.93 62.15 183.11 61.71C183.45 60.84 183.99 60.16 184.72 59.66Z" fill="white"/>
<path d="M209.73 60.26C210.39 60.97 210.72 61.91 210.72 63.07V73.13H214.35V63.57C214.35 61.07 213.84 59.16 212.83 57.86C211.82 56.56 210.27 55.9 208.2 55.9H208.05C206.7 55.9 205.58 56.19 204.67 56.78C203.76 57.37 203.08 58.23 202.64 59.37C202.51 59.7 202.41 60.06 202.31 60.44V56.4H199.42V73.13H203.05V63.23C203.05 62.01 203.41 61.03 204.14 60.3C204.86 59.57 205.82 59.2 207 59.2C208.16 59.19 209.07 59.55 209.73 60.26Z" fill="white"/>
<path d="M217.4 50.47V53.27H219.6V73.13H223.27V53.27V50.47H219.6H217.4Z" fill="white"/>
<path d="M238.26 56.84C237.14 56.41 235.73 56.19 234.04 56.19C233.5 56.19 232.94 56.2 232.35 56.22C231.76 56.24 231.19 56.27 230.64 56.3C230.09 56.33 229.59 56.37 229.13 56.41V59.54C229.65 59.5 230.24 59.46 230.91 59.43C231.58 59.4 232.27 59.37 232.97 59.35C233.67 59.33 234.32 59.32 234.89 59.32C235.95 59.32 236.74 59.59 237.28 60.13C237.82 60.67 238.09 61.45 238.09 62.49V62.8H234.27C232.8 62.8 231.54 63 230.48 63.39C229.42 63.78 228.61 64.37 228.04 65.16C227.47 65.95 227.19 66.94 227.19 68.14C227.19 69.28 227.44 70.26 227.94 71.07C228.44 71.88 229.14 72.51 230.05 72.93C230.96 73.35 232.03 73.57 233.25 73.57C234.43 73.57 235.43 73.36 236.25 72.93C237.07 72.51 237.71 71.9 238.17 71.1C238.38 70.74 238.55 70.34 238.68 69.9V73.13H241.57V62.67C241.57 61.1 241.3 59.84 240.75 58.9C240.21 57.96 239.38 57.27 238.26 56.84ZM236.02 70.48C235.44 70.72 234.83 70.84 234.19 70.84C233.09 70.84 232.25 70.59 231.68 70.08C231.1 69.57 230.81 68.9 230.81 68.05C230.81 67.2 231.1 66.51 231.68 65.99C232.26 65.46 233.1 65.2 234.19 65.2H238.1V66.94C238.06 67.95 237.85 68.74 237.46 69.3C237.08 69.84 236.6 70.24 236.02 70.48Z" fill="white"/>
<path d="M255.42 55.9H255.27C253.92 55.9 252.8 56.19 251.89 56.78C250.98 57.37 250.3 58.23 249.86 59.37C249.73 59.7 249.63 60.06 249.53 60.44V56.4H246.64V73.13H250.27V63.23C250.27 62.01 250.63 61.03 251.36 60.3C252.08 59.57 253.04 59.2 254.22 59.2C255.38 59.2 256.29 59.56 256.95 60.27C257.61 60.98 257.94 61.92 257.94 63.08V73.14H261.57V63.58C261.57 61.08 261.06 59.17 260.05 57.87C259.03 56.56 257.49 55.9 255.42 55.9Z" fill="white"/>
<path d="M279.2 50.47V58.89C278.6 57.93 277.84 57.18 276.92 56.69C275.9 56.14 274.74 55.87 273.46 55.87C272.26 55.87 271.17 56.09 270.19 56.54C269.21 56.99 268.36 57.6 267.66 58.39C266.96 59.18 266.41 60.09 266.03 61.14C265.65 62.19 265.46 63.31 265.46 64.51V65.1C265.46 66.32 265.66 67.45 266.05 68.48C266.44 69.51 267.01 70.43 267.74 71.21C268.47 72 269.33 72.61 270.32 73.04C271.3 73.47 272.39 73.69 273.59 73.69C274.85 73.69 276.01 73.42 277.07 72.87C278.13 72.32 278.99 71.47 279.66 70.31C279.77 70.12 279.86 69.9 279.96 69.7V73.14H282.85V50.47H279.2ZM279.32 65.31C279.32 66.39 279.09 67.32 278.62 68.12C278.15 68.92 277.54 69.52 276.79 69.94C276.03 70.35 275.19 70.56 274.26 70.56C273.27 70.56 272.38 70.33 271.59 69.86C270.8 69.39 270.19 68.73 269.74 67.86C269.29 66.99 269.07 65.97 269.07 64.79C269.07 63.63 269.29 62.62 269.72 61.75C270.15 60.88 270.76 60.2 271.54 59.72C272.32 59.23 273.21 58.99 274.22 58.99C275.13 58.99 275.97 59.19 276.73 59.58C277.5 59.97 278.12 60.54 278.59 61.29C279.07 62.04 279.3 62.94 279.3 63.99V65.31H279.32Z" fill="white"/>
<path d="M109.69 96.06H118.82V92.83H109.69V86.53H119.41V83.3H109.69H109.07H106V105.96H109.07H109.69H119.69V102.73H109.69V96.06Z" fill="white"/>
<path d="M132.97 88.73H132.81C131.46 88.73 130.34 89.02 129.43 89.61C128.52 90.2 127.84 91.06 127.4 92.2C127.27 92.53 127.17 92.89 127.07 93.26V89.22H124.18V105.95H127.81V96.05C127.81 94.83 128.17 93.85 128.9 93.12C129.62 92.39 130.58 92.02 131.76 92.02C132.92 92.02 133.83 92.38 134.49 93.09C135.15 93.8 135.48 94.74 135.48 95.9V105.96H139.11V96.4C139.11 93.9 138.6 91.99 137.59 90.69C136.58 89.38 135.04 88.73 132.97 88.73Z" fill="white"/>
<path d="M155.79 89.85C154.59 89.06 153.09 88.67 151.29 88.67C149.9 88.67 148.69 88.91 147.64 89.4C146.59 89.89 145.73 90.54 145.05 91.36C144.37 92.18 143.86 93.1 143.51 94.12C143.17 95.14 143 96.2 143 97.3V97.89C143 98.97 143.17 100.02 143.51 101.04C143.85 102.06 144.36 102.99 145.05 103.8C145.73 104.62 146.61 105.27 147.69 105.77C148.77 106.27 150.03 106.52 151.48 106.52C152.83 106.52 154.03 106.29 155.08 105.84C156.14 105.39 157.01 104.73 157.7 103.88C158.39 103.03 158.85 102.04 159.08 100.9H155.7C155.53 101.58 155.08 102.18 154.33 102.68C153.59 103.19 152.63 103.44 151.47 103.44C150.31 103.44 149.36 103.19 148.61 102.68C147.86 102.17 147.32 101.48 146.96 100.6C146.7 99.94 146.53 99.21 146.46 98.41H159.37V96.95C159.37 95.5 159.07 94.15 158.47 92.9C157.89 91.65 156.99 90.63 155.79 89.85ZM148.59 92.49C149.31 91.99 150.21 91.74 151.29 91.74C152.32 91.74 153.18 91.96 153.87 92.41C154.55 92.86 155.07 93.49 155.42 94.3C155.63 94.8 155.77 95.35 155.86 95.96H146.58C146.67 95.44 146.8 94.97 146.98 94.53C147.32 93.67 147.86 92.98 148.59 92.49Z" fill="white"/>
<path d="M167.64 90.82C166.88 91.68 166.39 92.87 166.18 94.36V89.22H163.29V105.95H166.92V97.07C166.92 95.52 167.34 94.32 168.18 93.49C169.02 92.65 170.22 92.23 171.8 92.23H172.92V89.03H172.33C170.26 89.04 168.7 89.64 167.64 90.82Z" fill="white"/>
<path d="M189.03 92.53C188.98 92.41 188.93 92.29 188.87 92.18C188.27 91.04 187.45 90.18 186.4 89.59C185.35 89 184.15 88.71 182.78 88.71C181.6 88.71 180.52 88.92 179.54 89.33C178.56 89.74 177.71 90.33 177.01 91.08C176.31 91.84 175.76 92.72 175.38 93.73C175 94.74 174.81 95.84 174.81 97.02V97.61C174.81 98.77 175 99.86 175.37 100.88C175.74 101.9 176.27 102.81 176.95 103.6C177.63 104.39 178.45 105 179.4 105.43C180.35 105.86 181.41 106.08 182.57 106.08C183.85 106.08 185 105.8 186 105.24C187 104.68 187.81 103.85 188.42 102.76C188.44 102.73 188.45 102.69 188.47 102.66V104.15C188.47 105.39 188.27 106.4 187.87 107.18C187.47 107.96 186.82 108.53 185.95 108.9C185.07 109.27 183.91 109.46 182.46 109.46C181.73 109.46 180.95 109.42 180.12 109.35C179.28 109.28 178.49 109.19 177.74 109.09V112.16C178.44 112.26 179.2 112.35 180.01 112.41C180.82 112.47 181.61 112.5 182.4 112.5C184.65 112.5 186.48 112.21 187.88 111.63C189.28 111.05 190.3 110.13 190.95 108.88C191.6 107.63 191.93 105.99 191.93 103.96V89.22H189.04V92.53H189.03ZM188.44 97.79C188.44 98.85 188.22 99.75 187.77 100.51C187.32 101.27 186.72 101.84 185.97 102.25C185.21 102.65 184.38 102.86 183.47 102.86C182.5 102.86 181.63 102.64 180.88 102.19C180.12 101.74 179.53 101.1 179.1 100.27C178.67 99.43 178.45 98.44 178.45 97.31C178.45 96.19 178.66 95.21 179.09 94.38C179.51 93.54 180.11 92.89 180.87 92.42C181.64 91.95 182.51 91.72 183.51 91.72C184.38 91.72 185.18 91.91 185.93 92.28C186.67 92.65 187.28 93.2 187.74 93.91C188.21 94.62 188.44 95.5 188.44 96.53V97.79Z" fill="white"/>
<path d="M195.42 89.23V92.02H197.88V105.96H201.51V92.02V89.23H197.88H195.42Z" fill="white"/>
<path d="M218.52 89.85C217.32 89.06 215.82 88.67 214.02 88.67C212.63 88.67 211.42 88.91 210.37 89.4C209.32 89.89 208.46 90.54 207.78 91.36C207.1 92.18 206.58 93.1 206.24 94.12C205.9 95.14 205.73 96.2 205.73 97.3V97.89C205.73 98.97 205.9 100.02 206.24 101.04C206.58 102.06 207.09 102.99 207.78 103.8C208.46 104.62 209.34 105.27 210.42 105.77C211.5 106.27 212.76 106.52 214.21 106.52C215.55 106.52 216.76 106.29 217.81 105.84C218.87 105.39 219.74 104.73 220.43 103.88C221.12 103.03 221.58 102.04 221.81 100.9H218.43C218.26 101.58 217.81 102.18 217.06 102.68C216.32 103.19 215.36 103.44 214.2 103.44C213.04 103.44 212.09 103.19 211.34 102.68C210.59 102.17 210.05 101.48 209.69 100.6C209.42 99.94 209.26 99.21 209.19 98.41H222.1V96.95C222.1 95.5 221.8 94.15 221.2 92.9C220.62 91.65 219.72 90.63 218.52 89.85ZM211.32 92.49C212.04 91.99 212.94 91.74 214.02 91.74C215.05 91.74 215.91 91.96 216.6 92.41C217.28 92.86 217.8 93.49 218.15 94.3C218.36 94.8 218.5 95.35 218.59 95.96H209.31C209.4 95.44 209.53 94.97 209.71 94.53C210.05 93.67 210.59 92.98 211.32 92.49Z" fill="white"/>
<path d="M199.18 86.9C200.345 86.9 201.29 85.9553 201.29 84.79C201.29 83.6247 200.345 82.68 199.18 82.68C198.015 82.68 197.07 83.6247 197.07 84.79C197.07 85.9553 198.015 86.9 199.18 86.9Z" fill="white"/>
</svg>
